<svg xmlns="http://www.w3.org/2000/svg" xmlns:xlink="http://www.w3.org/1999/xlink" width="38" height="56" viewBox="0 0 38 56"><defs><filter id="a" x="-17.5" y="-17.5" width="83" height="101" filterUnits="userSpaceOnUse"><feOffset dx="5" dy="5" input="SourceAlpha"/><feGaussianBlur stdDeviation="7.5" result="b"/><feFlood flood-opacity="0.102"/><feComposite operator="in" in2="b"/><feComposite in="SourceGraphic"/></filter><clipPath id="c"><g transform="matrix(1, 0, 0, 1, 0, 0)" filter="url(#a)"><rect width="38" height="56" transform="translate(208 1292.46)"/></g></clipPath></defs><g transform="translate(-208 -1292.459)" clip-path="url(#c)"><path d="M37,18.182A18.82,18.82,0,1,0,55.821,37,18.82,18.82,0,0,0,37,18.182ZM37,52.4A15.4,15.4,0,1,1,52.4,37,15.4,15.4,0,0,1,37,52.4Zm6.342-11.475a1.711,1.711,0,0,1-2.419,2.42l-5.133-5.133a1.711,1.711,0,0,1-.5-1.21V26.736a1.711,1.711,0,1,1,3.422,0v9.557Z" transform="translate(189.818 1283.228)"/></g></svg>